<?xml version="1.0" encoding="UTF-8"?><svg id="_图层_2" xmlns="http://www.w3.org/2000/svg" xmlns:xlink="http://www.w3.org/1999/xlink" viewBox="0 0 162.19 191.24"><defs><style>.cls-1{clip-rule:evenodd;}.cls-1,.cls-2{fill:url(#_未命名的渐变_10);}.cls-2,.cls-3,.cls-4{fill-rule:evenodd;}.cls-5{clip-path:url(#clippath);}.cls-6{fill:url(#_未命名的渐变_40);}.cls-7{fill:url(#_未命名的渐变_36);}.cls-8{fill:url(#_未命名的渐变_34);}.cls-9{fill:url(#_未命名的渐变_32);}.cls-10{fill:url(#_未命名的渐变_30);}.cls-3{fill:url(#_未命名的渐变_4);}.cls-11{fill:url(#_未命名的渐变_10-3);}.cls-12{fill:url(#_未命名的渐变_10-2);}.cls-4{fill:url(#_未命名的渐变_4-2);}</style><linearGradient id="_未命名的渐变_4" x1="3.53" y1="127.59" x2="26.8" y2="127.59" gradientUnits="userSpaceOnUse"><stop offset="0" stop-color="#fff"/><stop offset="1" stop-color="#ee2e31"/></linearGradient><linearGradient id="_未命名的渐变_4-2" x1="55.86" y1="95.22" x2="113.53" y2="-4.66" xlink:href="#_未命名的渐变_4"/><linearGradient id="_未命名的渐变_10" x1="10.36" y1="108.85" x2="69.71" y2="108.85" gradientUnits="userSpaceOnUse"><stop offset="0" stop-color="#fff"/><stop offset=".08" stop-color="#cddcea"/><stop offset=".17" stop-color="#9dbbd7"/><stop offset=".26" stop-color="#739ec6"/><stop offset=".36" stop-color="#4f86b8"/><stop offset=".46" stop-color="#3271ac"/><stop offset=".57" stop-color="#1c62a3"/><stop offset=".69" stop-color="#0c579c"/><stop offset=".82" stop-color="#025199"/><stop offset="1" stop-color="#004f98"/></linearGradient><clipPath id="clippath"><path class="cls-1" d="m24.64,26.46c-29.38,30.58-7.42,57.18,12.09,85.08h-11.9c-1.04,2.24-1.94,4.46-2.71,6.66h19.18c1.96,2.94,3.84,5.89,5.59,8.87h-27.05c-.37,2.23-.57,4.45-.59,6.66h31.3c1.47,2.93,2.77,5.88,3.86,8.87H20.16c.48,2.21,1.15,4.43,2.04,6.66h34.22c.69,2.92,1.13,5.87,1.29,8.86h-30.94c1.48,2.33,3.11,4.47,4.76,6.67h26.03c-.83,8.46-4.18,17.24-11.13,26.46C119.78,133.53-6.52,90.27,24.64,26.46"/></clipPath><linearGradient id="_未命名的渐变_10-2" x1="-1810.96" y1="-1601.46" x2="-1811.81" y2="-1607" gradientTransform="translate(58862.82 52189.98) scale(32.46)" xlink:href="#_未命名的渐变_10"/><linearGradient id="_未命名的渐变_10-3" x1="68.32" y1="151.24" x2="162.19" y2="151.24" xlink:href="#_未命名的渐变_10"/><linearGradient id="_未命名的渐变_36" x1="60" y1="113.5" x2="67" y2="113.5" gradientUnits="userSpaceOnUse"><stop offset="0" stop-color="#fff"/><stop offset=".05" stop-color="#f4e2ec"/><stop offset=".15" stop-color="#e0adcb"/><stop offset=".26" stop-color="#ce7fad"/><stop offset=".37" stop-color="#bf5895"/><stop offset=".48" stop-color="#b33880"/><stop offset=".6" stop-color="#a91f70"/><stop offset=".72" stop-color="#a30d65"/><stop offset=".85" stop-color="#9f035f"/><stop offset="1" stop-color="#9e005d"/></linearGradient><linearGradient id="_未命名的渐变_30" x1="0" y1="73" x2="10" y2="73" gradientUnits="userSpaceOnUse"><stop offset="0" stop-color="#fff"/><stop offset=".11" stop-color="#ffe5ca"/><stop offset=".22" stop-color="#ffd09d"/><stop offset=".34" stop-color="#ffbd76"/><stop offset=".45" stop-color="#ffad56"/><stop offset=".58" stop-color="#ffa23d"/><stop offset=".7" stop-color="#ff992b"/><stop offset=".84" stop-color="#ff9421"/><stop offset="1" stop-color="#ff931e"/></linearGradient><linearGradient id="_未命名的渐变_40" x1="19" y1="20" x2="25" y2="20" gradientUnits="userSpaceOnUse"><stop offset="0" stop-color="#fff"/><stop offset=".1" stop-color="#fefbcd"/><stop offset=".21" stop-color="#fdf7a0"/><stop offset=".33" stop-color="#fdf479"/><stop offset=".45" stop-color="#fcf259"/><stop offset=".57" stop-color="#fcf040"/><stop offset=".7" stop-color="#fcef2e"/><stop offset=".84" stop-color="#fcee24"/><stop offset="1" stop-color="#fcee21"/></linearGradient><linearGradient id="_未命名的渐变_34" x1="39" y1="91" x2="45" y2="91" gradientUnits="userSpaceOnUse"><stop offset="0" stop-color="#fff"/><stop offset=".02" stop-color="#fff9fb"/><stop offset=".16" stop-color="#ffd3e3"/><stop offset=".31" stop-color="#ffb3cf"/><stop offset=".46" stop-color="#ff9abf"/><stop offset=".63" stop-color="#ff88b4"/><stop offset=".8" stop-color="#ff7eae"/><stop offset="1" stop-color="#ff7bac"/></linearGradient><linearGradient id="_未命名的渐变_32" x1="44" y1="179" x2="52" y2="179" gradientUnits="userSpaceOnUse"><stop offset="0" stop-color="#fff"/><stop offset=".04" stop-color="#f4faef"/><stop offset=".16" stop-color="#d4edc2"/><stop offset=".28" stop-color="#b8e29b"/><stop offset=".41" stop-color="#a1d97b"/><stop offset=".54" stop-color="#90d262"/><stop offset=".68" stop-color="#83cc50"/><stop offset=".83" stop-color="#7cc946"/><stop offset="1" stop-color="#7ac943"/></linearGradient></defs><g id="_图层_1-2"><path class="cls-3" d="m25.53,102c-11.05,19.31-16.13,39.69,1.27,62.78C-7.19,138.04,1.7,114.41,17.92,90.39c2.37,3.88,4.95,7.75,7.62,11.61"/><path class="cls-4" d="m48.59,0c2.57,2.67,4.74,5.31,6.56,7.93C66.91,2.71,80.32,0,94.79,0c27.74,0,51.59,9.98,67.41,28.47l-20.44,19.22c-19.42-20.94-54.18-26.53-79.18-11.95h0c-2.05,16.47-14.13,32.32-25.54,48.6-2.43-3.79-4.67-7.61-6.6-11.46,2.18-3,4.34-6.03,6.41-9.07l-10.61-2.84c-.56-2.4-.97-4.81-1.23-7.22l15.69,4.2c1.65-2.62,3.21-5.27,4.63-7.94l-20.58-5.52c.11-2.25.36-4.49.72-6.7l22.84,6.12c1.22-2.75,2.27-5.54,3.11-8.35l-23.85-6.39c.69-2.12,1.51-4.21,2.44-6.24l22.94,6.15c.51-2.96.75-5.96.68-9l-19.2-5.14c1.31-1.99,2.76-3.9,4.32-5.73l14.17,3.8c-.76-4.24-2.17-8.56-4.33-12.99"/><path class="cls-2" d="m24.64,26.46c-29.38,30.58-7.42,57.18,12.09,85.08h-11.9c-1.04,2.24-1.94,4.46-2.71,6.66h19.18c1.96,2.94,3.84,5.89,5.59,8.87h-27.05c-.37,2.23-.57,4.45-.59,6.66h31.3c1.47,2.93,2.77,5.88,3.86,8.87H20.16c.48,2.21,1.15,4.43,2.04,6.66h34.22c.69,2.92,1.13,5.87,1.29,8.86h-30.94c1.48,2.33,3.11,4.47,4.76,6.67h26.03c-.83,8.46-4.18,17.24-11.13,26.46C119.78,133.53-6.52,90.27,24.64,26.46"/><g class="cls-5"><rect class="cls-12" x="-6.52" y="26.46" width="126.3" height="164.78"/></g><path class="cls-11" d="m94.54,175.21c27.99,0,51.83-9.98,67.65-28.47l-20.44-19.47c-12.41,13.63-27.74,20.2-45.51,20.2-6.62,0-12.89-.87-18.73-2.52.15,8.75-2.48,17.7-9.2,26.94,8.23,2.17,17.02,3.32,26.22,3.32"/><circle class="cls-7" cx="63.5" cy="113.5" r="3.5"/><circle class="cls-10" cx="5" cy="73" r="5"/><circle class="cls-6" cx="22" cy="20" r="3"/><circle class="cls-8" cx="42" cy="91" r="3"/><circle class="cls-9" cx="48" cy="179" r="4"/></g></svg>