<?xml version="1.0" standalone="no"?>
<!DOCTYPE svg PUBLIC "-//W3C//DTD SVG 20010904//EN"
 "http://www.w3.org/TR/2001/REC-SVG-20010904/DTD/svg10.dtd">
<svg version="1.0" xmlns="http://www.w3.org/2000/svg"
 width="764.000000pt" height="764.000000pt" viewBox="0 0 764.000000 764.000000"
 preserveAspectRatio="xMidYMid meet">
<metadata>
Created by potrace 1.14, written by Peter Selinger 2001-2017
</metadata>
<g transform="translate(0.000000,764.000000) scale(0.100000,-0.100000)"
fill="#000000" stroke="none">
<path d="M4087 7634 c-2 -2 -39 -6 -83 -9 -43 -2 -90 -7 -104 -10 -14 -2 -50
-7 -80 -10 -30 -2 -65 -7 -76 -9 -27 -5 -91 -17 -124 -21 -79 -12 -113 -19
-220 -46 -25 -6 -53 -12 -63 -14 -38 -8 -293 -86 -322 -99 -16 -7 -59 -24 -95
-37 -36 -12 -76 -29 -90 -36 -40 -21 -53 -15 -87 35 -18 26 -41 57 -50 68 -10
10 -40 46 -68 79 -66 78 -95 109 -95 102 0 -4 14 -36 30 -72 17 -36 30 -70 30
-75 0 -6 4 -18 10 -28 23 -40 72 -211 87 -299 5 -31 5 -31 -29 -23 -36 9 -175
47 -391 105 l-138 37 -21 -23 c-31 -35 -123 -161 -137 -186 -10 -21 -8 -23 31
-33 24 -6 55 -15 71 -20 15 -5 27 -6 27 -3 0 3 7 0 15 -7 8 -7 15 -10 15 -7 0
3 30 -3 68 -14 37 -11 76 -21 87 -24 11 -2 54 -13 95 -25 41 -12 82 -23 90
-25 66 -14 219 -59 235 -69 17 -11 20 -23 19 -69 -6 -145 -21 -274 -34 -282
-5 -3 -19 -1 -33 4 -13 5 -37 12 -53 15 -16 2 -72 17 -124 31 -52 15 -102 29
-110 31 -8 2 -67 17 -130 35 -63 17 -122 32 -130 34 -8 2 -15 4 -15 5 0 1 -7
3 -15 5 -8 1 -76 19 -151 39 -74 20 -139 36 -145 36 -8 0 -24 -36 -74 -165 -4
-11 -12 -32 -18 -47 -15 -36 -17 -34 141 -73 10 -2 27 -7 37 -10 10 -3 27 -8
37 -10 10 -3 61 -16 113 -31 52 -14 127 -34 165 -44 105 -27 333 -88 393 -106
45 -13 52 -18 48 -37 -4 -20 -39 -118 -93 -260 l-18 -48 -40 7 c-22 3 -48 10
-57 15 -10 5 -30 11 -45 13 -15 3 -80 19 -143 36 -63 17 -122 33 -130 35 -8 3
-67 18 -130 35 -63 17 -122 33 -130 35 -8 2 -15 4 -15 5 0 2 -18 6 -55 14 -14
3 -56 14 -95 25 -75 21 -84 18 -86 -29 0 -14 -2 -34 -5 -45 -2 -11 -6 -54 -9
-96 l-6 -75 78 -23 c43 -12 87 -24 98 -26 11 -3 29 -7 40 -9 11 -3 63 -17 115
-31 202 -56 288 -79 385 -105 44 -11 86 -23 93 -25 13 -5 5 -23 -65 -142 -10
-17 -35 -61 -56 -98 -21 -36 -45 -69 -52 -71 -7 -3 -98 18 -202 46 -103 28
-197 53 -208 55 -11 2 -60 15 -110 29 -49 14 -94 26 -98 26 -7 0 -3 -56 9
-120 3 -14 7 -38 9 -55 3 -16 9 -44 14 -62 5 -17 7 -34 4 -37 -6 -6 35 -23 71
-30 13 -2 58 -14 101 -26 43 -12 89 -24 103 -26 14 -3 29 -7 34 -10 5 -3 20
-7 34 -10 14 -3 40 -10 56 -17 l31 -12 -27 -32 c-14 -17 -26 -36 -26 -42 0 -6
-4 -11 -10 -11 -5 0 -10 -5 -10 -11 0 -6 -6 -16 -12 -23 -7 -8 -20 -24 -28
-36 -8 -12 -43 -61 -77 -108 -46 -63 -61 -92 -57 -107 15 -49 226 -413 248
-427 15 -11 26 -10 26 2 0 8 137 209 192 282 15 19 8 9 133 190 52 76 95 140
95 142 0 3 21 35 46 71 123 181 339 570 379 685 1 3 7 19 14 35 60 139 123
366 135 482 2 13 9 30 17 38 30 29 352 178 409 189 8 1 54 15 102 30 48 15 95
29 105 31 10 2 50 10 88 19 63 13 112 21 185 31 188 26 515 26 705 -1 49 -6
192 -31 220 -38 129 -30 172 -41 240 -63 169 -53 523 -209 533 -235 2 -4 8 -8
13 -8 12 0 143 -82 147 -92 2 -4 8 -8 13 -8 22 0 219 -163 331 -273 63 -62 71
-63 114 -15 12 12 75 73 140 134 65 62 139 131 164 154 126 118 292 274 373
351 l91 86 -155 154 c-159 159 -173 171 -249 230 -25 18 -47 37 -50 40 -6 7
-149 109 -176 126 -173 110 -472 273 -498 273 -3 0 -25 9 -49 20 -61 28 -269
103 -352 126 -76 22 -283 74 -308 78 -17 3 -43 8 -57 11 -50 10 -146 27 -175
31 -16 2 -43 6 -60 8 -16 3 -61 8 -100 11 -38 4 -88 9 -110 12 -49 6 -633 12
-638 7z"/>
<path d="M1386 6935 c-68 -54 -57 -163 19 -200 47 -22 92 -15 133 21 32 27 36
36 36 83 1 48 -2 55 -36 87 -33 30 -44 34 -82 32 -27 -2 -55 -11 -70 -23z"/>
<path d="M1543 6566 c-4 -8 -26 -34 -48 -57 -102 -111 -258 -327 -305 -424 -8
-16 -18 -32 -21 -35 -20 -18 -124 -291 -135 -356 -3 -16 -9 -45 -14 -64 -33
-123 -33 -390 -1 -567 17 -88 20 -103 26 -123 3 -10 8 -27 10 -37 2 -10 17
-58 33 -108 27 -80 39 -111 71 -190 5 -11 29 -64 55 -118 25 -53 46 -100 47
-105 1 -4 10 -19 20 -34 10 -14 19 -29 19 -32 0 -3 20 -40 45 -82 25 -41 45
-78 45 -80 0 -3 18 -32 40 -64 22 -32 40 -61 40 -64 0 -7 248 -377 329 -491
39 -55 75 -107 81 -115 6 -8 33 -46 60 -85 28 -38 50 -72 50 -75 0 -3 11 -18
25 -34 14 -16 25 -32 25 -35 0 -4 -104 -7 -231 -6 -174 0 -233 -3 -241 -13
-14 -16 -107 -246 -102 -251 2 -2 175 -4 384 -4 l380 0 59 -91 c70 -108 161
-255 161 -259 0 -1 -243 -3 -540 -2 -473 0 -540 -2 -541 -15 -1 -8 -3 -24 -5
-35 -1 -11 -5 -58 -9 -105 -3 -47 -8 -91 -10 -97 -5 -16 -77 -14 643 -15 l613
-1 13 -31 c7 -17 27 -60 44 -96 37 -78 92 -209 92 -219 0 -4 -303 -7 -672 -6
-370 0 -679 -1 -685 -3 -7 -2 -10 -8 -7 -13 3 -5 7 -18 10 -29 2 -11 6 -28 8
-38 11 -48 30 -108 38 -117 4 -5 8 -17 8 -26 0 -45 -10 -44 704 -44 464 1 679
-2 682 -10 2 -5 5 -21 8 -35 2 -14 9 -52 15 -85 9 -53 17 -117 24 -195 l2 -25
-618 0 c-339 0 -617 -2 -617 -3 0 -4 102 -155 110 -162 6 -5 61 -78 72 -94 4
-7 185 -10 525 -11 l518 0 -1 -25 c-1 -14 -5 -45 -9 -70 -4 -25 -9 -56 -10
-70 -2 -14 -4 -25 -5 -25 -1 0 -3 -7 -5 -15 -13 -65 -62 -227 -76 -252 -5 -10
-9 -23 -9 -29 0 -17 -131 -281 -157 -315 -13 -17 -23 -35 -23 -39 0 -4 -11
-23 -25 -41 -14 -18 -25 -35 -25 -39 0 -6 -54 -82 -80 -112 -23 -28 6 -11 59
35 31 26 64 54 75 62 64 52 264 252 344 345 91 106 217 287 257 370 11 22 23
41 28 43 4 2 7 9 7 16 0 7 11 34 24 62 27 57 84 229 92 281 3 19 8 45 10 57
26 128 23 361 -7 507 -6 30 -12 61 -13 69 -7 48 -82 282 -102 322 -8 15 -14
30 -15 33 0 8 -34 85 -73 165 -59 122 -133 254 -213 378 -29 45 -53 87 -53 92
0 4 -3 10 -7 12 -5 2 -35 44 -68 93 -63 96 -233 335 -433 610 -68 94 -130 179
-138 190 -7 11 -35 50 -61 86 -27 36 -52 73 -58 81 -5 9 -58 87 -116 174 -109
163 -204 316 -271 439 -51 93 -151 298 -163 335 -1 3 -7 19 -14 35 -19 45 -52
134 -52 139 0 3 -9 29 -20 58 -11 29 -22 62 -23 74 -2 11 -6 25 -9 31 -3 5 -9
25 -12 44 -3 19 -8 41 -10 49 -5 18 -14 63 -21 105 -3 17 -7 36 -9 43 -23 68
-24 440 0 559 2 11 6 38 10 59 8 46 13 69 15 69 1 0 4 13 6 28 6 35 78 257 92
284 30 56 63 158 35 109z"/>
<path d="M740 4920 c-160 -44 -211 -220 -98 -337 127 -131 354 -21 335 162
-12 110 -137 202 -237 175z"/>
<path d="M2224 4119 c-66 -18 -104 -99 -75 -159 54 -112 204 -92 226 30 7 42
-20 97 -57 116 -39 20 -57 23 -94 13z"/>
<path d="M1246 3957 c-116 -182 -232 -382 -285 -490 -52 -105 -116 -250 -125
-282 -2 -5 -6 -17 -9 -25 -9 -25 -37 -115 -42 -136 -2 -10 -9 -35 -14 -54 -6
-19 -15 -60 -20 -90 -6 -30 -13 -73 -17 -95 -4 -22 -8 -105 -9 -184 -3 -237
38 -420 141 -637 70 -149 202 -345 311 -466 73 -80 232 -237 293 -290 30 -26
73 -63 95 -83 74 -66 72 -54 -13 73 -100 152 -234 416 -256 507 -2 6 -12 42
-24 80 -12 39 -24 81 -26 95 -3 14 -10 43 -15 65 -18 76 -34 233 -34 335 0 66
12 239 18 260 3 8 7 35 10 59 3 23 7 46 9 50 2 3 7 24 10 46 14 86 60 233 124
395 46 118 194 421 220 453 14 15 9 27 -54 119 -38 56 -71 107 -73 113 -2 5
-7 12 -10 15 -4 3 -32 46 -64 95 -69 109 -88 135 -96 135 -3 -1 -24 -29 -45
-63z"/>
<path d="M3075 3237 c-66 -21 -108 -90 -94 -154 19 -95 114 -143 196 -101 100
51 104 197 7 243 -48 22 -70 25 -109 12z"/>
<path d="M6136 2448 c-100 -102 -257 -232 -356 -297 -30 -20 -57 -38 -60 -41
-7 -7 -34 -22 -212 -118 -58 -31 -257 -111 -328 -132 -25 -7 -63 -19 -85 -25
-81 -26 -256 -58 -395 -73 -87 -9 -489 -9 -565 1 -129 16 -215 28 -235 33 -8
2 -48 11 -88 19 -41 9 -85 21 -99 26 -14 5 -28 7 -31 5 -3 -3 -6 -45 -8 -93
-1 -49 -5 -101 -7 -118 -3 -16 -9 -50 -12 -75 -10 -65 -16 -92 -40 -175 -48
-175 -131 -349 -250 -530 l-53 -80 26 -8 c45 -14 234 -55 282 -62 8 -1 31 -5
50 -9 19 -4 51 -9 70 -11 19 -2 46 -6 60 -9 14 -2 57 -7 95 -11 39 -3 87 -8
108 -11 32 -4 97 -7 302 -16 35 -1 387 13 419 17 21 3 66 7 100 10 59 4 76 6
201 26 95 15 141 23 195 35 14 3 34 7 45 9 15 2 156 38 270 69 6 2 17 6 25 9
8 3 47 15 85 27 97 31 295 112 404 165 51 25 94 45 96 45 7 0 175 100 265 158
87 56 263 188 335 251 22 19 100 95 173 169 120 121 150 164 123 174 -8 3
-194 177 -340 318 -32 30 -129 123 -216 205 -87 83 -175 167 -196 188 -20 20
-41 37 -46 36 -4 0 -52 -46 -107 -101z"/>
<path d="M2446 640 c-130 -39 -142 -231 -18 -291 113 -55 236 29 226 154 -8
103 -106 167 -208 137z"/>
</g>
</svg>
